<svg width="200" height="100" viewBox="0 0 200 100" fill="none" xmlns="http://www.w3.org/2000/svg">
<path d="M102 0H65V13.3824H102C112.493 13.3824 121 21.8889 121 32.3824V36.0294V37.6176C121 48.1111 112.493 56.6176 102 56.6176H65V70H83.5H102C120.225 70 135 55.2254 135 37V36.0294V33C135 14.7746 120.225 0 102 0Z" fill="white"/>
<path d="M18.9118 79.11H25.7518C27.6118 79.11 29.2318 79.47 30.6118 80.19C31.9918 80.89 33.0518 81.88 33.7918 83.16C34.5318 84.44 34.9018 85.9 34.9018 87.54C34.9018 89.2 34.5318 90.67 33.7918 91.95C33.0518 93.23 31.9918 94.23 30.6118 94.95C29.2318 95.65 27.6118 96 25.7518 96H18.9118V79.11ZM25.6918 94.71C27.2918 94.71 28.6718 94.41 29.8318 93.81C30.9918 93.21 31.8718 92.37 32.4718 91.29C33.0918 90.21 33.4018 88.96 33.4018 87.54C33.4018 86.14 33.0918 84.91 32.4718 83.85C31.8718 82.77 30.9918 81.93 29.8318 81.33C28.6718 80.73 27.2918 80.43 25.6918 80.43H20.4118V94.71H25.6918ZM53.5397 79.11V96H52.0997V92.97C51.5597 94.01 50.7897 94.8 49.7897 95.34C48.8097 95.88 47.6297 96.15 46.2497 96.15C44.1697 96.15 42.5497 95.55 41.3897 94.35C40.2297 93.15 39.6497 91.45 39.6497 89.25V79.11H41.1497V89.19C41.1497 91.01 41.6097 92.4 42.5297 93.36C43.4697 94.32 44.7997 94.8 46.5197 94.8C48.2797 94.8 49.6397 94.3 50.5997 93.3C51.5597 92.28 52.0397 90.79 52.0397 88.83V79.11H53.5397ZM74.1396 79.11L66.5196 96H65.0196L57.3996 79.11H59.0496L65.7996 94.2L72.5496 79.11H74.1396ZM84.469 96.15C82.789 96.15 81.269 95.78 79.909 95.04C78.549 94.28 77.479 93.25 76.699 91.95C75.919 90.63 75.529 89.16 75.529 87.54C75.529 85.94 75.919 84.49 76.699 83.19C77.479 81.87 78.549 80.84 79.909 80.1C81.269 79.34 82.789 78.96 84.469 78.96C86.149 78.96 87.669 79.34 89.029 80.1C90.389 80.84 91.459 81.87 92.239 83.19C93.019 84.49 93.409 85.94 93.409 87.54C93.409 89.16 93.019 90.63 92.239 91.95C91.459 93.25 90.389 94.28 89.029 95.04C87.669 95.78 86.149 96.15 84.469 96.15ZM84.469 94.8C85.869 94.8 87.129 94.49 88.249 93.87C89.389 93.25 90.279 92.39 90.919 91.29C91.579 90.17 91.909 88.93 91.909 87.57C91.909 86.19 91.579 84.95 90.919 83.85C90.279 82.75 89.389 81.89 88.249 81.27C87.129 80.63 85.869 80.31 84.469 80.31C83.069 80.31 81.809 80.63 80.689 81.27C79.569 81.89 78.679 82.76 78.019 83.88C77.379 84.98 77.059 86.21 77.059 87.57C77.059 88.93 77.379 90.17 78.019 91.29C78.679 92.39 79.569 93.25 80.689 93.87C81.809 94.49 83.069 94.8 84.469 94.8ZM98.3356 79.11H105.176C107.036 79.11 108.656 79.47 110.036 80.19C111.416 80.89 112.476 81.88 113.216 83.16C113.956 84.44 114.326 85.9 114.326 87.54C114.326 89.2 113.956 90.67 113.216 91.95C112.476 93.23 111.416 94.23 110.036 94.95C108.656 95.65 107.036 96 105.176 96H98.3356V79.11ZM105.116 94.71C106.716 94.71 108.096 94.41 109.256 93.81C110.416 93.21 111.296 92.37 111.896 91.29C112.516 90.21 112.826 88.96 112.826 87.54C112.826 86.14 112.516 84.91 111.896 83.85C111.296 82.77 110.416 81.93 109.256 81.33C108.096 80.73 106.716 80.43 105.116 80.43H99.8356V94.71H105.116ZM122.824 80.43V94.71H126.334V96H117.814V94.71H121.324V80.43H117.814V79.11H126.334V80.43H122.824ZM145.507 79.11L137.887 96H136.387L128.767 79.11H130.417L137.167 94.2L143.917 79.11H145.507ZM154.561 87.87L150.871 91.59V96H149.371V79.11H150.871V89.67L161.281 79.11H163.051L155.611 86.79L163.561 96H161.731L154.561 87.87ZM174.2 78.96C176.38 78.96 178.1 79.6 179.36 80.88C180.64 82.14 181.28 83.97 181.28 86.37V96H179.75V90.93H168.65V96H167.15V86.37C167.15 83.97 167.78 82.14 169.04 80.88C170.32 79.6 172.04 78.96 174.2 78.96ZM179.75 89.61V86.19C179.75 84.25 179.26 82.79 178.28 81.81C177.32 80.81 175.96 80.31 174.2 80.31C172.44 80.31 171.07 80.81 170.09 81.81C169.13 82.79 168.65 84.25 168.65 86.19V89.61H179.75Z" fill="white"/>
</svg>
